# xmcd
#
# Track frame offsets: 
#        150
#        13480
#        28354
#        42019
#        55909
#        67221
#        80588
#        92664
#        106083
#        119493
#        133751
#        146554
#
# Disc length: 2111 seconds
#
# Revision: 0
# Processed by: cddbd v1.5.2PL0 Copyright (c) Steve Scherf et al.
# Submitted via: ExactAudioCopyFreeDBPlugin 1.0
#
DISCID=b0083d0c
DTITLE=Freda Payne - Band Of Gold (2012 Remastered)
DYEAR=1970
DGENRE=Soul
TTITLE0=Band Of Gold
TTITLE1=I Left Some Dreams Back There
TTITLE2=Deeper and Deeper
TTITLE3=Rock Me In The Cradle
TTITLE4=Unhooked Generation
TTITLE5=Love On Borrowed Time
TTITLE6=Through The Memory Of My Mind
TTITLE7=This Girl Is A Woman Now
TTITLE8=The World Don't Owe You A Thing
TTITLE9=Now Is The Time To Say Goodbye
TTITLE10=Happy Heart
TTITLE11=The Easiest Way To Fall
EXTD=
EXTT0=
EXTT1=
EXTT2=
EXTT3=
EXTT4=
EXTT5=
EXTT6=
EXTT7=
EXTT8=
EXTT9=
EXTT10=
EXTT11=
PLAYORDER=
